<?xml version="1.0" encoding="utf-8"?>
<!-- Generator: Adobe Illustrator 21.1.0, SVG Export Plug-In . SVG Version: 6.00 Build 0)  -->
<svg version="1.1" id="Layer_1" xmlns="http://www.w3.org/2000/svg" xmlns:xlink="http://www.w3.org/1999/xlink" x="0px" y="0px"
	 viewBox="0 0 800 800" style="enable-background:new 0 0 800 800;" xml:space="preserve">
<style type="text/css">
	.st0{fill:#37BC9B;}
</style>
<path class="st0" d="M399.3,784c34.5,0,63.2-25,69-57.8H330.2C336.1,759,364.7,784,399.3,784z"/>
<path class="st0" d="M417.3,190.2V94.1c13.7-6.7,23.1-20.7,23.1-36.9c0-22.7-18.4-41.1-41.1-41.1s-41.1,18.4-41.1,41.1
	c0,16.3,9.5,30.3,23.1,36.9v96.2c5.9-0.5,11.9-0.8,18-0.8S411.3,189.7,417.3,190.2z"/>
<path class="st0" d="M677.2,211.7c-18-3-35,9.2-38,27.2c-2.1,12.9,3.5,25.2,13.5,32.3l-16.6,100.6c-7.6-6.3-16.8-10.7-27.2-12.4
	c-1-0.2-2-0.2-3-0.3c-4.3-0.5-8.5-0.5-12.6-0.1c-18.9-89.8-98.5-157.3-193.9-157.3c-95.4,0-175,67.4-193.9,157.1
	c-4.2-0.3-8.4-0.2-12.7,0.4c-0.3,0-0.7,0.1-1,0.1c-10.4,1.7-19.7,6.2-27.2,12.4l-16.6-100.6c10-7.1,15.6-19.4,13.5-32.3
	c-3-18-20-30.2-38-27.2c-18,3-30.2,20-27.2,38c2.1,12.9,11.5,22.7,23.2,26.2l25.5,154l0.2,0c5.3,22,22.6,38.3,43.8,43
	c4,0.9,8.2,1.3,12.4,1.3v119.8v62.7c0,31.5,25.5,57.1,57.1,57.1h282.3c31.5,0,57.1-25.5,57.1-57.1v-62.7V474.2
	c4.2,0.1,8.4-0.2,12.4-0.9c22-4.1,40.3-20.7,45.7-43.3l0.2,0l25.5-154c11.7-3.5,21-13.4,23.2-26.2
	C707.4,231.7,695.2,214.7,677.2,211.7z M495.8,581.7c-5.4,0-9.9-4.4-9.9-9.9s4.4-9.9,9.9-9.9c5.4,0,9.9,4.4,9.9,9.9
	S501.2,581.7,495.8,581.7z M495.8,554.4c-5.4,0-9.9-4.4-9.9-9.9s4.4-9.9,9.9-9.9c5.4,0,9.9,4.4,9.9,9.9S501.2,554.4,495.8,554.4z
	 M495.8,527.1c-5.4,0-9.9-4.4-9.9-9.9c0-5.4,4.4-9.9,9.9-9.9c5.4,0,9.9,4.4,9.9,9.9C505.7,522.7,501.2,527.1,495.8,527.1z
	 M523.1,581.7c-5.4,0-9.9-4.4-9.9-9.9s4.4-9.9,9.9-9.9s9.9,4.4,9.9,9.9S528.5,581.7,523.1,581.7z M523.1,554.4
	c-5.4,0-9.9-4.4-9.9-9.9s4.4-9.9,9.9-9.9s9.9,4.4,9.9,9.9S528.5,554.4,523.1,554.4z M523.1,527.1c-5.4,0-9.9-4.4-9.9-9.9
	c0-5.4,4.4-9.9,9.9-9.9s9.9,4.4,9.9,9.9C533,522.7,528.5,527.1,523.1,527.1z M500.4,461.9c-0.7,0-1.4-0.1-2.1-0.1v0.1h-70.2h-72.3
	h-2.1v-0.1c-31.8-1.2-57.3-30.6-57.8-66.9c0-0.3,0-0.6,0-1c0-9.9,1.9-19.3,5.3-27.8c16-44.9,66.7-77.7,126.9-77.7
	s110.9,32.8,126.9,77.7c3.3,9.1,5.1,18.8,5.2,28.7C559.8,432,533.2,461.9,500.4,461.9z M550.4,581.7c-5.4,0-9.9-4.4-9.9-9.9
	s4.4-9.9,9.9-9.9s9.9,4.4,9.9,9.9S555.8,581.7,550.4,581.7z M550.4,554.4c-5.4,0-9.9-4.4-9.9-9.9s4.4-9.9,9.9-9.9s9.9,4.4,9.9,9.9
	S555.8,554.4,550.4,554.4z M550.4,527.1c-5.4,0-9.9-4.4-9.9-9.9c0-5.4,4.4-9.9,9.9-9.9s9.9,4.4,9.9,9.9
	C560.3,522.7,555.8,527.1,550.4,527.1z"/>
<circle class="st0" cx="366.2" cy="412.4" r="24.8"/>
<circle class="st0" cx="490.1" cy="412.4" r="24.8"/>
</svg>
