<?xml version="1.0" encoding="utf-8"?>
<!-- Generator: Adobe Illustrator 21.1.0, SVG Export Plug-In . SVG Version: 6.00 Build 0)  -->
<svg version="1.1" id="Layer_1" xmlns="http://www.w3.org/2000/svg" xmlns:xlink="http://www.w3.org/1999/xlink" x="0px" y="0px"
	 viewBox="0 0 2008.9 780" style="enable-background:new 0 0 2008.9 780;" xml:space="preserve">
<style type="text/css">
	.st0{fill:#FFFFFF;}
</style>
<path class="st0" d="M114.1,384.1L88,368.2c-16.4-10-28.1-19.9-35-29.6c-6.9-9.7-10.4-20.8-10.4-33.5c0-18.9,6.6-34.3,19.7-46.1
	c13.1-11.8,30.2-17.7,51.2-17.7c20.1,0,38.5,5.6,55.2,16.9v39.1c-17.3-16.7-36-25-55.9-25c-11.2,0-20.5,2.6-27.7,7.8
	c-7.2,5.2-10.8,11.9-10.8,20c0,7.2,2.7,13.9,8,20.2c5.3,6.3,13.9,12.9,25.7,19.8l26.3,15.6c29.3,17.5,44,39.8,44,66.9
	c0,19.3-6.5,34.9-19.4,47c-12.9,12-29.7,18.1-50.3,18.1c-23.7,0-45.4-7.3-64.9-21.9V422c18.6,23.5,40.1,35.3,64.5,35.3
	c10.8,0,19.8-3,26.9-9c7.2-6,10.8-13.5,10.8-22.5C145.8,411.1,135.2,397.2,114.1,384.1"/>
<path class="st0" d="M209.6,565.5v-239h54.8c28.1,0,49.9,7,65.6,21c15.6,14,23.5,33.6,23.5,58.7c0,23.7-7.4,43.3-22.1,58.5
	c-14.7,15.3-33.5,22.9-56.3,22.9c-10.1,0-21.3-2.2-33.5-6.7v84.7H209.6z M263.8,355.8h-22.1v97.4c9.6,4.9,19.7,7.4,30.2,7.4
	c14.7,0,26.6-5.1,36-15.3c9.3-10.2,14-23.3,14-39.4c0-10.3-2.2-19.4-6.6-27.4c-4.4-7.9-10.4-13.7-18-17.3
	C289.6,357.6,278.4,355.8,263.8,355.8"/>
<path class="st0" d="M522.8,408.4H411.5c0.8,15.1,5.9,27.2,15.2,36.1c9.4,8.9,21.4,13.4,36.2,13.4c20.6,0,39.7-6.4,57.1-19.3v30.6
	c-9.6,6.4-19.2,11-28.6,13.8c-9.5,2.8-20.6,4.1-33.3,4.1c-17.4,0-31.5-3.6-42.3-10.8c-10.8-7.2-19.4-17-25.9-29.2
	c-6.5-12.2-9.7-26.4-9.7-42.4c0-24.1,6.8-43.7,20.5-58.8c13.6-15.1,31.4-22.6,53.2-22.6c21,0,37.7,7.3,50.2,22
	c12.5,14.7,18.8,34.4,18.8,59V408.4z M412.2,389.6h79.7c-0.8-12.5-4.5-22.1-11.2-28.9c-6.7-6.8-15.6-10.2-26.8-10.2
	c-11.2,0-20.4,3.4-27.6,10.2C419,367.5,414.3,377.1,412.2,389.6"/>
<path class="st0" d="M675.4,447.8v31c-15.7,5.8-31.1,8.8-46.1,8.8c-24.8,0-44.5-7.3-59.3-22c-14.7-14.7-22.1-34.4-22.1-59
	c0-24.9,7.2-45,21.5-60.2c14.3-15.3,33.2-22.9,56.6-22.9c8.1,0,15.5,0.8,21.9,2.3c6.5,1.5,14.5,4.4,24,8.7v33.4
	c-15.8-10.1-30.5-15.1-44-15.1c-14.1,0-25.7,5-34.8,14.9c-9.1,9.9-13.6,22.6-13.6,37.9c0,16.2,4.9,29,14.7,38.5
	c9.8,9.5,23,14.3,39.7,14.3C646,458.3,659.8,454.8,675.4,447.8"/>
<path class="st0" d="M688.9,351.6l58.8-57.8v32.7h50.1v28.2h-50.1v77.5c0,18.1,7.5,27.1,22.5,27.1c11.2,0,23.1-3.7,35.6-11.2v29.2
	c-12,6.8-25.2,10.2-39.4,10.2c-14.3,0-26.3-4.2-35.8-12.6c-3-2.5-5.4-5.4-7.4-8.5c-2-3.2-3.6-7.3-4.9-12.4c-1.3-5.1-2-14.8-2-29.2
	v-70.2h-27.5V351.6z"/>
<path class="st0" d="M862,326.5v36.3l1.7-2.8c15.1-24.4,30.3-36.7,45.4-36.7c11.8,0,24.1,6,37,17.9l-16.5,27.5
	c-10.9-10.3-21-15.5-30.3-15.5c-10.1,0-18.8,4.8-26.2,14.5c-7.4,9.6-11.1,21.1-11.1,34.2v82.8h-31.5V326.5H862z"/>
<path class="st0" d="M1068.8,484.8v-20.3c-6.7,7.3-14.3,12.9-22.8,17c-8.6,4-17.1,6.1-25.6,6.1c-10,0-19.2-2.5-27.6-7.5
	c-8.4-5-14.8-11.8-19.1-20.3c-4.3-8.5-6.5-22.7-6.5-42.6v-90.7h31.3v90.2c0,16.6,2.4,28.2,7.1,34.8c4.8,6.6,13.1,9.9,25,9.9
	c14.9,0,27.6-7.3,38-21.9V326.5h31.3v158.3H1068.8z"/>
<path class="st0" d="M1273.9,369.9v114.9h-31.5v-88.1c0-17.5-2.3-29.8-7.1-36.7c-4.7-6.9-12.9-10.4-24.6-10.4
	c-6.5,0-12.5,1.5-18,4.5c-5.5,3-11.7,8.3-18.7,15.8v114.9h-31.3V326.5h31.3v20.8c15.9-15.9,31.5-23.9,46.8-23.9
	c20.1,0,35.6,9.5,46.6,28.6c16.8-19.3,34.2-28.9,52.5-28.9c15.4,0,28,5.6,37.9,16.9c9.9,11.2,14.9,28.4,14.9,51.4v93.4h-31.3V391
	c0-13.2-2.7-23.3-8.1-30.3c-5.4-7-13.1-10.5-23.2-10.5C1297.2,350.2,1285.1,356.8,1273.9,369.9"/>
<g>
	<path class="st0" d="M325.6,504.4h11.5v88.1h-24.5c-8.6,0-15.4-2.7-20.5-8.1c-5.1-5.4-7.7-12.7-7.7-21.8c0-8.5,2.7-15.6,8-21.1
		c5.4-5.5,12.2-8.3,20.5-8.3c3.9,0,8.1,0.8,12.6,2.5V504.4z M325.6,582.7v-36.8c-3.6-1.8-7.2-2.7-10.8-2.7c-5.7,0-10.3,1.9-13.7,5.6
		c-3.4,3.7-5.1,8.8-5.1,15.1c0,6,1.5,10.6,4.4,13.8c1.8,1.9,3.6,3.2,5.6,3.9c2,0.7,5.5,1,10.7,1H325.6z"/>
	<path class="st0" d="M358.6,510.1c1.9,0,3.5,0.7,4.9,2c1.3,1.3,2,2.9,2,4.8c0,1.9-0.7,3.4-2,4.8c-1.3,1.3-3,2-4.9,2
		c-1.8,0-3.3-0.7-4.7-2c-1.3-1.4-2-3-2-4.8c0-1.8,0.7-3.3,2-4.7C355.3,510.8,356.9,510.1,358.6,510.1z M353,534.5h11.5v58H353V534.5
		z"/>
	<path class="st0" d="M378.1,554.5c0-6.2,2.3-11.1,6.8-14.7c4.5-3.6,10.7-5.4,18.5-5.4h23.9v9h-11.7c2.3,2.3,3.8,4.4,4.7,6.3
		c0.9,1.9,1.3,4.1,1.3,6.5c0,3-0.9,6-2.6,8.9c-1.7,2.9-3.9,5.2-6.7,6.7c-2.7,1.6-7.2,2.8-13.3,3.7c-4.3,0.6-6.5,2.1-6.5,4.5
		c0,1.3,0.8,2.4,2.4,3.3c1.6,0.9,4.5,1.8,8.8,2.7c7.1,1.6,11.7,2.8,13.7,3.7c2,0.9,3.9,2.1,5.5,3.8c2.8,2.8,4.2,6.3,4.2,10.5
		c0,5.5-2.4,9.9-7.3,13.2c-4.9,3.3-11.4,4.9-19.6,4.9c-8.3,0-14.9-1.7-19.8-5c-4.9-3.3-7.4-7.7-7.4-13.3c0-7.9,4.9-12.9,14.6-15.2
		c-3.9-2.5-5.8-4.9-5.8-7.4c0-1.8,0.8-3.5,2.5-5c1.7-1.5,3.9-2.6,6.7-3.3C382.3,569.1,378.1,563,378.1,554.5z M396.9,595.2
		c-3.9,0-7,0.8-9.5,2.5c-2.5,1.6-3.7,3.7-3.7,6.3c0,6,5.4,9,16.1,9c5.1,0,9-0.7,11.8-2.2c2.8-1.5,4.2-3.6,4.2-6.3
		c0-2.7-1.8-4.9-5.3-6.6C407.1,596.1,402.5,595.2,396.9,595.2z M399.6,544.4c-3.1,0-5.8,1.1-7.9,3.2c-2.2,2.1-3.3,4.6-3.3,7.6
		c0,3,1.1,5.5,3.2,7.4c2.1,2,4.9,2.9,8.1,2.9c3.2,0,5.9-1,8.1-3c2.2-2,3.2-4.5,3.2-7.5c0-3-1.1-5.5-3.3-7.6
		C405.6,545.5,402.9,544.4,399.6,544.4z"/>
	<path class="st0" d="M442.1,510.1c1.9,0,3.5,0.7,4.9,2c1.3,1.3,2,2.9,2,4.8c0,1.9-0.7,3.4-2,4.8c-1.3,1.3-3,2-4.9,2
		c-1.8,0-3.3-0.7-4.7-2c-1.3-1.4-2-3-2-4.8c0-1.8,0.7-3.3,2-4.7C438.7,510.8,440.3,510.1,442.1,510.1z M436.4,534.5h11.5v58h-11.5
		V534.5z"/>
	<path class="st0" d="M456.3,543.7l21.6-21.2v12h18.4v10.3h-18.4v28.4c0,6.6,2.8,10,8.3,10c4.1,0,8.5-1.4,13.1-4.2v10.7
		c-4.4,2.5-9.2,3.7-14.4,3.7c-5.3,0-9.6-1.5-13.1-4.6c-1.1-0.9-2-2-2.7-3.1c-0.7-1.2-1.3-2.7-1.8-4.5c-0.5-1.9-0.7-5.4-0.7-10.7
		v-25.7h-10.1V543.7z"/>
	<path class="st0" d="M543.9,557.6v24.7c0,2,0.7,3,2,3c1.4,0,3.6-1,6.5-3.1v7c-2.6,1.7-4.7,2.8-6.3,3.4c-1.6,0.6-3.2,0.9-5,0.9
		c-4.9,0-7.8-1.9-8.7-5.8c-4.9,3.8-10.1,5.7-15.6,5.7c-4,0-7.4-1.3-10.1-4c-2.7-2.7-4-6-4-10.1c0-3.7,1.3-6.9,3.9-9.8
		c2.6-2.9,6.4-5.2,11.2-6.8l14.7-5v-3.1c0-7-3.5-10.5-10.5-10.5c-6.3,0-12.4,3.2-18.3,9.7v-12.5c4.5-5.3,10.9-7.9,19.2-7.9
		c6.3,0,11.3,1.6,15.1,4.9c1.3,1.1,2.4,2.4,3.4,4.2c1,1.7,1.6,3.5,1.9,5.2C543.8,549.4,543.9,552.7,543.9,557.6z M532.6,581v-17.2
		l-7.7,3c-3.9,1.6-6.7,3.1-8.3,4.7c-1.6,1.6-2.4,3.5-2.4,5.9c0,2.4,0.8,4.4,2.3,5.9c1.5,1.5,3.5,2.3,6,2.3
		C526.1,585.5,529.5,584,532.6,581z"/>
	<path class="st0" d="M562.8,504.4h11.5v88.1h-11.5V504.4z"/>
	<path class="st0" d="M626,622.1v-87.6h20.1c10.3,0,18.3,2.6,24.1,7.7c5.7,5.1,8.6,12.3,8.6,21.5c0,8.7-2.7,15.9-8.1,21.4
		c-5.4,5.6-12.3,8.4-20.7,8.4c-3.7,0-7.8-0.8-12.3-2.5v31H626z M645.9,545.2h-8.1v35.7c3.5,1.8,7.2,2.7,11.1,2.7
		c5.4,0,9.8-1.9,13.2-5.6c3.4-3.7,5.1-8.6,5.1-14.4c0-3.8-0.8-7.1-2.4-10c-1.6-2.9-3.8-5-6.6-6.3
		C655.4,545.9,651.3,545.2,645.9,545.2z"/>
	<path class="st0" d="M703.6,534.5v13.3l0.6-1c5.5-9,11.1-13.4,16.6-13.4c4.3,0,8.8,2.2,13.6,6.6l-6.1,10.1c-4-3.8-7.7-5.7-11.1-5.7
		c-3.7,0-6.9,1.8-9.6,5.3c-2.7,3.5-4.1,7.7-4.1,12.5v30.3h-11.5v-58H703.6z"/>
	<path class="st0" d="M748.4,510.1c1.9,0,3.5,0.7,4.9,2c1.3,1.3,2,2.9,2,4.8c0,1.9-0.7,3.4-2,4.8c-1.3,1.3-3,2-4.9,2
		c-1.8,0-3.3-0.7-4.7-2c-1.3-1.4-2-3-2-4.8c0-1.8,0.7-3.3,2-4.7C745.1,510.8,746.7,510.1,748.4,510.1z M742.7,534.5h11.5v58h-11.5
		V534.5z"/>
	<path class="st0" d="M782.3,534.5v7.4c5.1-5.7,11-8.5,17.5-8.5c3.6,0,7,0.9,10.1,2.8c3.1,1.9,5.5,4.4,7.1,7.7
		c1.6,3.3,2.4,8.4,2.4,15.5v33.2h-11.5v-33c0-5.9-0.9-10.2-2.7-12.7c-1.8-2.5-4.8-3.8-9.1-3.8c-5.4,0-10,2.7-13.8,8.1v41.4h-11.7
		v-58H782.3z"/>
	<path class="st0" d="M827.3,543.7l21.6-21.2v12h18.4v10.3h-18.4v28.4c0,6.6,2.8,10,8.3,10c4.1,0,8.5-1.4,13.1-4.2v10.7
		c-4.4,2.5-9.2,3.7-14.4,3.7c-5.3,0-9.6-1.5-13.1-4.6c-1.1-0.9-2-2-2.7-3.1c-0.7-1.2-1.3-2.7-1.8-4.5c-0.5-1.9-0.7-5.4-0.7-10.7
		v-25.7h-10.1V543.7z"/>
	<path class="st0" d="M911.4,588.3V576c3.2,2.3,6.5,4.1,9.9,5.5c3.4,1.4,6.2,2.1,8.5,2.1c2.4,0,4.5-0.6,6.2-1.8
		c1.7-1.2,2.6-2.6,2.6-4.2c0-1.7-0.6-3.1-1.7-4.2c-1.1-1.1-3.5-2.7-7.2-4.8c-7.4-4.1-12.2-7.6-14.5-10.6c-2.3-2.9-3.4-6.1-3.4-9.6
		c0-4.5,1.7-8.1,5.2-10.9c3.5-2.8,7.9-4.2,13.4-4.2c5.7,0,11.5,1.6,17.5,4.8v11.4c-6.8-4.1-12.4-6.2-16.7-6.2c-2.2,0-4,0.5-5.4,1.4
		c-1.4,0.9-2,2.2-2,3.8c0,1.3,0.6,2.6,1.9,3.9c1.2,1.2,3.4,2.7,6.5,4.4l4.1,2.3c9.7,5.5,14.5,11.5,14.5,18.2c0,4.7-1.9,8.6-5.6,11.7
		c-3.7,3-8.5,4.6-14.3,4.6c-3.4,0-6.5-0.4-9.2-1.1C918.9,591.7,915.5,590.3,911.4,588.3z"/>
	<path class="st0" d="M991.7,534.4c8.8,0,16.2,2.8,22,8.5c5.8,5.7,8.8,12.9,8.8,21.5c0,8.4-3,15.3-8.9,20.8
		c-5.9,5.5-13.4,8.3-22.4,8.3c-8.7,0-16-2.8-21.8-8.4c-5.8-5.6-8.8-12.6-8.8-21c0-8.5,3-15.6,8.9-21.2
		C975.4,537.2,982.8,534.4,991.7,534.4z M991.1,544.7c-5.5,0-10,1.8-13.6,5.4c-3.5,3.6-5.3,8.2-5.3,13.8c0,5.5,1.8,10.1,5.4,13.6
		c3.6,3.5,8.3,5.3,13.9,5.3c5.6,0,10.2-1.8,13.8-5.3c3.6-3.6,5.4-8.1,5.4-13.7c0-5.5-1.9-10.1-5.6-13.7
		C1001.5,546.5,996.8,544.7,991.1,544.7z"/>
	<path class="st0" d="M1035.5,504.4h11.5v88.1h-11.5V504.4z"/>
	<path class="st0" d="M1100.5,592.5v-7.4c-2.4,2.6-5.2,4.7-8.4,6.2c-3.1,1.5-6.3,2.2-9.4,2.2c-3.7,0-7-0.9-10.1-2.7
		c-3.1-1.8-5.4-4.3-7-7.4c-1.6-3.1-2.4-8.3-2.4-15.6v-33.2h11.5v33.1c0,6.1,0.9,10.4,2.6,12.8c1.7,2.4,4.8,3.6,9.2,3.6
		c5.5,0,10.1-2.7,13.9-8v-41.5h11.5v58H1100.5z"/>
	<path class="st0" d="M1120,543.7l21.6-21.2v12h18.4v10.3h-18.4v28.4c0,6.6,2.8,10,8.3,10c4.1,0,8.5-1.4,13.1-4.2v10.7
		c-4.4,2.5-9.2,3.7-14.4,3.7c-5.3,0-9.6-1.5-13.1-4.6c-1.1-0.9-2-2-2.7-3.1c-0.7-1.2-1.3-2.7-1.8-4.5c-0.5-1.9-0.7-5.4-0.7-10.7
		v-25.7H1120V543.7z"/>
	<path class="st0" d="M1177.1,510.1c1.9,0,3.5,0.7,4.9,2c1.3,1.3,2,2.9,2,4.8c0,1.9-0.7,3.4-2,4.8c-1.3,1.3-3,2-4.9,2
		c-1.8,0-3.3-0.7-4.7-2c-1.3-1.4-2-3-2-4.8c0-1.8,0.7-3.3,2-4.7C1173.7,510.8,1175.3,510.1,1177.1,510.1z M1171.4,534.5h11.5v58
		h-11.5V534.5z"/>
	<path class="st0" d="M1227.2,534.4c8.8,0,16.2,2.8,22,8.5c5.8,5.7,8.8,12.9,8.8,21.5c0,8.4-3,15.3-8.9,20.8
		c-5.9,5.5-13.4,8.3-22.4,8.3c-8.7,0-16-2.8-21.8-8.4c-5.8-5.6-8.8-12.6-8.8-21c0-8.5,3-15.6,8.9-21.2
		C1210.9,537.2,1218.3,534.4,1227.2,534.4z M1226.6,544.7c-5.5,0-10,1.8-13.6,5.4c-3.5,3.6-5.3,8.2-5.3,13.8
		c0,5.5,1.8,10.1,5.4,13.6c3.6,3.5,8.3,5.3,13.9,5.3c5.6,0,10.2-1.8,13.8-5.3c3.6-3.6,5.4-8.1,5.4-13.7c0-5.5-1.9-10.1-5.6-13.7
		C1236.9,546.5,1232.2,544.7,1226.6,544.7z"/>
	<path class="st0" d="M1282.2,534.5v7.4c5.1-5.7,11-8.5,17.5-8.5c3.6,0,7,0.9,10.1,2.8c3.1,1.9,5.5,4.4,7.1,7.7
		c1.6,3.3,2.4,8.4,2.4,15.5v33.2h-11.5v-33c0-5.9-0.9-10.2-2.7-12.7c-1.8-2.5-4.8-3.8-9.1-3.8c-5.4,0-10,2.7-13.8,8.1v41.4h-11.7
		v-58H1282.2z"/>
	<path class="st0" d="M1332.4,588.3V576c3.2,2.3,6.5,4.1,9.9,5.5c3.4,1.4,6.2,2.1,8.5,2.1c2.4,0,4.5-0.6,6.2-1.8
		c1.7-1.2,2.6-2.6,2.6-4.2c0-1.7-0.6-3.1-1.7-4.2c-1.1-1.1-3.5-2.7-7.2-4.8c-7.4-4.1-12.2-7.6-14.5-10.6c-2.3-2.9-3.4-6.1-3.4-9.6
		c0-4.5,1.7-8.1,5.2-10.9c3.5-2.8,7.9-4.2,13.4-4.2c5.7,0,11.5,1.6,17.5,4.8v11.4c-6.8-4.1-12.4-6.2-16.7-6.2c-2.2,0-4,0.5-5.4,1.4
		c-1.4,0.9-2,2.2-2,3.8c0,1.3,0.6,2.6,1.9,3.9c1.2,1.2,3.4,2.7,6.5,4.4l4.1,2.3c9.7,5.5,14.5,11.5,14.5,18.2c0,4.7-1.9,8.6-5.6,11.7
		c-3.7,3-8.5,4.6-14.3,4.6c-3.4,0-6.5-0.4-9.2-1.1C1339.9,591.7,1336.5,590.3,1332.4,588.3z"/>
</g>
<circle class="st0" cx="1531" cy="212.5" r="62.4"/>
<circle class="st0" cx="1689.8" cy="371.3" r="62.4"/>
<circle class="st0" cx="1689.8" cy="212.5" r="62.4"/>
<circle class="st0" cx="1531" cy="530.1" r="62.4"/>
<circle class="st0" cx="1689.8" cy="530.1" r="62.4"/>
<circle class="st0" cx="1848.6" cy="530.1" r="62.4"/>
<circle class="st0" cx="1848.6" cy="371.3" r="62.4"/>
<circle class="st0" cx="1531" cy="371.3" r="62.4"/>
<circle class="st0" cx="1848.6" cy="212.5" r="62.4"/>
</svg>
