<?xml version="1.0" encoding="utf-8"?>
<!-- Generator: Adobe Illustrator 21.1.0, SVG Export Plug-In . SVG Version: 6.00 Build 0)  -->
<svg version="1.1" id="Layer_1" xmlns="http://www.w3.org/2000/svg" xmlns:xlink="http://www.w3.org/1999/xlink" x="0px" y="0px"
	 viewBox="0 0 1366 768" style="enable-background:new 0 0 1366 768;" xml:space="preserve">
<style type="text/css">
	.st0{fill:#FFFFFF;}
</style>
<ellipse transform="matrix(0.7071 -0.7071 0.7071 0.7071 -142.9968 397.3766)" class="st0" cx="408.2" cy="371.3" rx="62.4" ry="62.4"/>
<ellipse transform="matrix(0.7071 -0.7071 0.7071 0.7071 -77.206 556.2097)" class="st0" cx="632.8" cy="371.3" rx="62.4" ry="62.4"/>
<ellipse transform="matrix(0.7071 -0.7071 0.7071 0.7071 -30.6849 443.8977)" class="st0" cx="520.5" cy="259" rx="62.4" ry="62.4"/>
<ellipse transform="matrix(0.7071 -0.7071 0.7071 0.7071 -236.0391 622.0005)" class="st0" cx="632.8" cy="595.9" rx="62.4" ry="62.4"/>
<ellipse transform="matrix(0.7071 -0.7071 0.7071 0.7071 -123.7271 668.5217)" class="st0" cx="745.1" cy="483.6" rx="62.4" ry="62.4"/>
<ellipse transform="matrix(0.7071 -0.7071 0.7071 0.7071 -11.4152 715.0428)" class="st0" cx="857.4" cy="371.3" rx="62.4" ry="62.4"/>
<ellipse transform="matrix(0.7071 -0.7071 0.7071 0.7071 35.1059 602.7308)" class="st0" cx="745.1" cy="259" rx="62.4" ry="62.4"/>
<ellipse transform="matrix(0.7071 -0.7071 0.7071 0.7071 -189.518 509.6886)" class="st0" cx="520.5" cy="483.6" rx="62.4" ry="62.4"/>
<ellipse transform="matrix(0.7071 -0.7071 0.7071 0.7071 81.6271 490.4189)" class="st0" cx="632.8" cy="146.7" rx="62.4" ry="62.4"/>
</svg>
